<svg width="200" height="39" viewBox="0 0 200 39" fill="none" xmlns="http://www.w3.org/2000/svg">
<path d="M51.075 28.5H56.25L59.15 16.95L61.95 28.5H67.125L71.7 10.95H67.1L64.55 23.725L61.55 10.95H56.85L53.725 23.725L51.2 10.95H46.625L51.075 28.5ZM73.8439 28.5H78.1189V20.925C78.1189 19.025 79.1689 17.975 80.7939 17.975C82.4189 17.975 83.4689 19.025 83.4689 20.925V28.5H87.7189V20.35C87.7189 16.6 85.5939 14.4 82.4189 14.4C80.4939 14.4 78.9689 15.225 78.1189 16.425V10H73.8439V28.5ZM90.6896 28.5H94.9646V14.55H90.6896V28.5ZM92.8396 13.1C94.3396 13.1 95.3646 12.075 95.3646 10.8C95.3646 9.5 94.3396 8.475 92.8396 8.475C91.3146 8.475 90.2896 9.5 90.2896 10.8C90.2896 12.075 91.3146 13.1 92.8396 13.1ZM98.7377 23.65C98.7377 27.275 100.763 28.5 103.663 28.5H105.838V24.875H104.313C103.363 24.875 103.013 24.525 103.013 23.7V18.1H105.813V14.55H103.013V11.15H98.7377V14.55H97.0377V18.1H98.7377V23.65ZM114.369 17.775C115.794 17.775 116.994 18.65 116.994 20.175H111.644C111.894 18.625 112.969 17.775 114.369 17.775ZM121.044 23.875H116.494C116.144 24.625 115.469 25.225 114.269 25.225C112.894 25.225 111.769 24.375 111.619 22.55H121.294C121.344 22.125 121.369 21.7 121.369 21.3C121.369 17.05 118.494 14.35 114.419 14.35C110.269 14.35 107.369 17.1 107.369 21.525C107.369 25.95 110.319 28.7 114.419 28.7C117.894 28.7 120.369 26.6 121.044 23.875ZM122.899 19.7C122.899 24.95 126.549 28.625 131.724 28.625C135.899 28.625 139.049 26.3 140.049 22.5H135.349C134.624 24 133.299 24.75 131.674 24.75C129.049 24.75 127.249 22.8 127.249 19.7C127.249 16.6 129.049 14.65 131.674 14.65C133.299 14.65 134.624 15.4 135.349 16.9H140.049C139.049 13.1 135.899 10.75 131.724 10.75C126.549 10.75 122.899 14.45 122.899 19.7ZM156.317 21.525C156.317 17.1 153.167 14.35 149.067 14.35C144.992 14.35 141.817 17.1 141.817 21.525C141.817 25.95 144.917 28.7 149.017 28.7C153.117 28.7 156.317 25.95 156.317 21.525ZM146.167 21.525C146.167 19.15 147.517 18.05 149.067 18.05C150.567 18.05 151.967 19.15 151.967 21.525C151.967 23.875 150.542 25 149.017 25C147.467 25 146.167 23.875 146.167 21.525ZM172.481 21.5C172.481 25.9 175.206 28.7 178.606 28.7C180.681 28.7 182.156 27.75 182.931 26.525V28.5H187.206V14.55H182.931V16.525C182.181 15.3 180.706 14.35 178.631 14.35C175.206 14.35 172.481 17.1 172.481 21.5ZM182.931 21.525C182.931 23.75 181.506 24.975 179.881 24.975C178.281 24.975 176.831 23.725 176.831 21.5C176.831 19.275 178.281 18.075 179.881 18.075C181.506 18.075 182.931 19.3 182.931 21.525ZM194.574 22.025C194.574 19.625 195.749 18.925 197.774 18.925H198.949V14.4C197.074 14.4 195.549 15.4 194.574 16.875V14.55H190.299V28.5H194.574V22.025Z" fill="#37393F"/>
<path d="M158.585 28.5H162.86V10H158.585V28.5ZM165.958 28.5H170.233V10H165.958V28.5Z" fill="#6B77E5"/>
<path d="M14.3756 6.5H8.49649L25.2608 35.5L28.2003 30.4152L14.3756 6.5Z" fill="#40DDB6"/>
<path d="M5.8791 6.5H0L16.5506 35.1299L19.4084 29.9051L5.8791 6.5Z" fill="#40DDB6"/>
<path d="M32.5307 23.1948L36.3049 16.6629H30.4274L29.5911 18.11L25.433 10.9196H39.62L42.1706 6.5H17L29.5945 28.2863L32.5324 23.1981L32.5307 23.1948Z" fill="#6B77E5"/>
</svg>
